<?xml version="1.0" encoding="utf-8"?>
<!-- Generator: Adobe Illustrator 25.0.0, SVG Export Plug-In . SVG Version: 6.00 Build 0)  -->
<svg version="1.1" id="Layer_1" xmlns="http://www.w3.org/2000/svg" xmlns:xlink="http://www.w3.org/1999/xlink" x="0px" y="0px"
	 viewBox="0 0 3839 1141.3" style="enable-background:new 0 0 3839 1141.3;" xml:space="preserve">
<g>
	<g>
		<path d="M3433.5,593c0-22,0.9-43.4,2.8-64.1h178.1c17.2,0,24.8,16.5,13.7,27.3c29.8-24.1,59.1-52.8,86-84.1h-269.4
			c21.9-104.6,78.4-178.5,190.8-178.5c130.8,0,127.9,114.4,127.9,114.4c38.3-56.1,66.5-115,75.6-165.9c0,0-12.6,15.8-26.1,15.8
			h-478.7v6.3c5.8,0,11.4,0.8,16.6,2.2c18,5,24.6,27.1,12.6,41.3c-25.9,30.6-66.2,103.4-66.2,207.8c0,394.7,252,534.3,483.3,550.1
			C3527.7,1021.6,3433.5,823.4,3433.5,593z M2466.1,264.3c28.8,0,52.1,19.2,52.1,42.9v165.1h-232.8V307.1
			c0-23.7,23.3-42.9,52.1-42.9V258h-224.9v6.3c28.8,0,52.1,19.2,52.1,42.9h0v709.4h0c0,23.7-23.3,42.9-52.1,42.9v6.3h224.9v-6.3
			c-28.8,0-52.1-19.2-52.1-42.9V528.9h232.8v487.6h0c0,23.7-23.3,42.9-52.1,42.9v6.3h224.9v-6.3c-28.8,0-52.1-19.2-52.1-42.9V307.1
			h0c0-23.7,23.3-42.9,52.1-42.9V258h-224.9V264.3z M3123.8,264.3c28.8,0,52.1,19.2,52.1,42.8v0h0v218.4
			c-56.8-125.2-170.4-234-363.1-284.8c0,0-107.2,126.3-107.2,126.3c17.6-1.4,32.4,0,44.4,4.2c17.6,5.6,22.1,15.7,22.1,30.4v614.9h0
			c0,23.7-23.3,42.9-52.1,42.9v6.3h150v-6.3c-28.8,0-52.1-19.2-52.1-42.9h0V392.4c165.7,0,522,352,251.3,720.6
			c90.5-66.7,152.3-164.5,152.3-376.7h0V307.1c0-23.7,23.3-42.8,52.1-42.8V258h-150V264.3z M1871.4,246.4
			c-55.4,0-121.4,16.2-182.5,36.6c-104.5,34.9-195,82.1-195,82.1l3,5.9c38-16,54.7-1.4,54.7,12.5v633.1h0
			c0,23.7-23.3,42.9-52.1,42.9v6.3h224.9v-6.3h0c-28.8,0-52.1-19.2-52.1-42.9h0V452.2c0.7-48.3,16.5-87.1,42.5-116.5
			c26.1-29.4,63.5-44.1,112.1-44.1c73.9,0,123.7,76.7,123.7,76.7l-83.3,128.4L1713.8,593l239.4-75.7c0,0,152.2-144.9,159.3-153.3
			C2112.6,364,2029.7,246.4,1871.4,246.4z M981.8,264.3c16.4,0,31.1,6.3,40.7,16.1c9.8,10.1,9.1,26.4-1.1,36.1
			c-86.6,82.5-297.1,601.7,89.3,824.9c-199.6-242.9-123.8-823.7,192.5-833.9v164.8h-174.8v0c-15.4,25.7-28.4,54-39,84.1
			c0,0,12.6-27.3,52.1-27.3h161.7v487.6h0c0,23.7-23.3,42.9-52.1,42.9v6.3H1476v-6.3c-28.8,0-52.1-19.2-52.1-42.9V307.1h0
			c0-23.7,23.3-42.9,52.1-42.9V258H981.8V264.3z M879.6,150C837.3,102.6,641.8,0.4,444.9,0C244.6-0.4,43,101.8,0,150l0,6.3h0
			c37.4,0,67.8,24.9,67.9,55.7l0,804.5c0,30.9-14.6,40.9-52.1,40.9v8.2h300c0,0,50.4-20.3,129.8-54.6
			C734.4,886.5,872.4,577.1,873.7,389c0.4-61.5-14.7-130.6-39.5-218.2c12.1-9,28-14.5,45.5-14.5L879.6,150z M698.6,450.6
			C680.4,619.8,551.9,856.7,262.7,983c-22.8,9.9-37.2-11.4-37.2-34.2c0-140.4,0-650.2,0-650.2c0-83.1,21.5-224.7,218.9-224.7
			C698.6,73.9,711.5,330.8,698.6,450.6z" fill="#FFFFFF"/>
	</g>
</g>
</svg>
